# 3ds Max Wavefront OBJ Exporter v0.97b - (c)2007 guruware
# File Created: 21.06.2016 16:00:55

#
# object Stick
#

v  0.00 0.00 0.07
v  0.00 -0.01 0.07
v  0.00 -0.01 0.05
v  0.01 0.00 0.05
v  -0.01 -0.01 0.07
v  -0.01 -0.01 0.05
v  -0.02 -0.00 0.07
v  -0.01 -0.00 0.05
v  -0.01 0.01 0.07
v  -0.01 0.01 0.05
v  0.00 0.01 0.07
v  -0.00 0.01 0.05
v  -0.00 -0.01 0.03
v  0.00 0.00 0.03
v  -0.01 -0.01 0.03
v  -0.01 -0.00 0.03
v  -0.01 0.01 0.03
v  -0.00 0.01 0.03
v  -0.00 -0.01 0.01
v  0.00 -0.00 0.01
v  -0.01 -0.01 0.01
v  -0.01 -0.00 0.01
v  -0.01 0.01 0.01
v  -0.00 0.01 0.01
v  -0.00 -0.01 -0.01
v  0.00 -0.00 -0.01
v  -0.01 -0.01 -0.01
v  -0.01 -0.00 -0.01
v  -0.01 0.01 -0.01
v  -0.00 0.01 -0.01
v  -0.00 -0.01 -0.03
v  0.00 0.00 -0.04
v  -0.01 -0.01 -0.02
v  -0.01 -0.00 -0.02
v  -0.01 0.01 -0.03
v  0.00 0.01 -0.04
v  -0.01 -0.01 -0.05
v  -0.00 0.00 -0.05
v  -0.01 -0.00 -0.06
v  -0.02 0.00 -0.05
v  -0.01 0.01 -0.05
v  -0.00 0.01 -0.04
v  -0.01 -0.01 -0.07
v  -0.01 -0.00 -0.07
v  -0.02 -0.01 -0.07
v  -0.02 -0.00 -0.07
v  -0.02 0.00 -0.07
v  -0.01 0.00 -0.07
v  0.01 -0.00 -0.05
v  0.01 0.01 -0.05
v  0.00 0.00 -0.06
v  0.00 0.01 -0.05
v  0.01 -0.00 -0.06
v  0.01 0.00 -0.06
v  0.02 -0.00 -0.07
v  0.02 0.00 -0.06
v  0.02 0.00 -0.07
# 57 vertices

vn 0.96 -0.25 -0.11
vn 0.58 -0.30 0.75
vn -0.14 -0.64 0.76
vn 0.11 -0.83 -0.55
vn -0.58 -0.54 -0.61
vn -0.76 -0.36 0.55
vn -0.46 0.61 0.64
vn -0.60 0.45 -0.66
vn -0.26 0.73 -0.64
vn 0.07 0.83 0.56
vn 0.56 0.15 0.82
vn 0.42 0.36 -0.84
vn 0.49 -0.24 -0.84
vn 0.58 -0.37 -0.72
vn 0.07 -0.42 -0.91
vn -0.00 -0.58 -0.82
vn -0.23 -0.12 -0.96
vn -0.66 -0.06 -0.75
vn -0.45 0.34 -0.82
vn -0.24 0.03 -0.97
vn 0.10 0.77 -0.63
vn -0.03 0.56 -0.83
vn 0.51 0.45 -0.74
vn 0.66 0.48 -0.58
vn 0.58 -0.37 0.72
vn 0.87 -0.37 -0.33
vn -0.00 -0.49 0.87
vn -0.05 -0.31 0.95
vn -0.33 -0.09 0.94
vn -0.32 -0.07 0.95
vn -0.29 0.16 0.94
vn -0.40 0.14 0.91
vn -0.05 0.66 0.75
vn 0.01 0.57 0.82
vn 0.67 0.49 -0.56
vn 0.86 0.50 -0.07
vn 0.64 -0.27 -0.72
vn 0.85 -0.49 -0.20
vn -0.13 -0.77 -0.63
vn 0.05 -0.33 -0.94
vn -0.86 -0.20 -0.46
vn -0.39 -0.19 -0.90
vn -0.63 0.24 -0.74
vn -0.86 0.50 0.07
vn 0.00 0.53 -0.85
vn -0.02 0.47 -0.88
vn 0.78 0.45 -0.44
vn 0.82 0.46 -0.34
vn 0.75 -0.43 -0.50
vn 0.82 -0.57 -0.08
vn 0.08 -0.49 -0.87
vn -0.02 -0.98 0.18
vn -0.53 -0.26 0.81
vn -0.72 -0.43 0.54
vn -0.51 0.29 0.81
vn -0.49 0.29 0.82
vn -0.04 1.00 0.00
vn 0.10 0.80 0.59
vn 0.81 0.45 0.38
vn 0.60 0.14 0.79
vn 0.63 -0.49 -0.60
vn 0.19 -0.02 -0.98
vn -0.06 -0.91 -0.42
vn -0.26 -0.68 0.69
vn -0.82 -0.53 -0.23
vn -0.64 -0.20 0.74
vn -0.46 0.27 0.85
vn -0.42 0.27 0.86
vn 0.11 0.59 0.80
vn 0.01 0.88 0.48
vn 0.22 -0.02 -0.98
vn 0.44 -0.22 -0.87
vn -0.14 -0.30 0.94
vn -0.15 -0.97 0.18
vn -0.21 -0.13 0.97
vn -0.21 -0.12 0.97
vn -0.49 0.31 0.82
vn -0.50 0.29 0.82
vn 0.07 0.38 -0.92
vn 0.03 0.37 -0.93
vn 0.26 0.10 -0.96
vn 0.20 0.14 -0.97
vn 0.18 0.07 0.98
vn 0.13 0.02 0.99
vn -0.08 -0.86 -0.50
vn -0.14 -0.88 -0.45
vn 0.14 0.70 0.70
vn -0.01 0.20 -0.98
vn -0.04 0.14 -0.99
vn -0.01 0.10 -0.99
vn 0.10 0.02 1.00
vn 0.10 0.03 0.99
vn -0.10 -0.73 -0.68
vn 0.01 -0.99 0.13
vn -0.01 0.72 -0.69
vn -0.04 0.17 -0.98
vn -0.06 0.10 -0.99
vn -0.03 -0.04 -1.00
vn 0.12 0.05 0.99
vn 0.01 -0.99 0.12
vn -0.07 0.19 -0.98
vn -0.07 0.17 -0.98
vn -0.11 -0.06 -0.99
vn -0.11 -0.07 -0.99
# 104 vertex normals

vt 0.75 0.00 1.00
vt 0.92 0.00 1.00
vt 0.92 0.14 1.00
vt 0.75 0.14 1.00
vt 1.08 0.00 1.00
vt 1.08 0.14 1.00
vt 0.08 0.00 1.00
vt 0.25 0.00 1.00
vt 0.25 0.14 1.00
vt 0.08 0.14 1.00
vt 0.42 0.00 1.00
vt 0.42 0.14 1.00
vt 0.58 0.00 1.00
vt 0.58 0.14 1.00
vt 0.92 0.29 1.00
vt 0.75 0.29 1.00
vt 1.08 0.29 1.00
vt 0.25 0.29 1.00
vt 0.08 0.29 1.00
vt 0.42 0.29 1.00
vt 0.58 0.29 1.00
vt 0.92 0.43 1.00
vt 0.75 0.43 1.00
vt 1.08 0.43 1.00
vt 0.25 0.43 1.00
vt 0.08 0.43 1.00
vt 0.42 0.43 1.00
vt 0.58 0.43 1.00
vt 0.92 0.57 1.00
vt 0.75 0.57 1.00
vt 1.08 0.57 1.00
vt 0.25 0.57 1.00
vt 0.08 0.57 1.00
vt 0.42 0.57 1.00
vt 0.58 0.57 1.00
vt 0.92 0.71 1.00
vt 0.75 0.71 1.00
vt 1.08 0.71 1.00
vt 0.25 0.71 1.00
vt 0.08 0.71 1.00
vt 0.42 0.71 1.00
vt 0.58 0.71 1.00
vt 0.92 0.86 1.00
vt 0.75 0.86 1.00
vt 1.08 0.86 1.00
vt 0.25 0.86 1.00
vt 0.08 0.86 1.00
vt 0.42 0.86 1.00
vt 0.58 0.86 1.00
vt 0.92 1.00 1.00
vt 0.75 1.00 1.00
vt 1.08 1.00 1.00
vt 0.25 1.00 1.00
vt 0.08 1.00 1.00
vt 0.42 1.00 1.00
vt 0.58 1.00 1.00
# 56 texture coords

g Stick
f 1/1/1 2/2/1 3/3/1 
f 3/3/2 4/4/2 1/1/2 
f 2/2/3 5/5/3 6/6/3 
f 6/6/4 3/3/4 2/2/4 
f 5/7/5 7/8/5 8/9/5 
f 8/9/6 6/10/6 5/7/6 
f 7/8/7 9/11/7 10/12/7 
f 10/12/8 8/9/8 7/8/8 
f 9/11/9 11/13/9 12/14/9 
f 12/14/10 10/12/10 9/11/10 
f 11/13/11 1/1/11 4/4/11 
f 4/4/12 12/14/12 11/13/12 
f 4/4/13 3/3/13 13/15/13 
f 13/15/14 14/16/14 4/4/14 
f 3/3/15 6/6/15 15/17/15 
f 15/17/16 13/15/16 3/3/16 
f 6/10/17 8/9/17 16/18/17 
f 16/18/18 15/19/18 6/10/18 
f 8/9/19 10/12/19 17/20/19 
f 17/20/20 16/18/20 8/9/20 
f 10/12/21 12/14/21 18/21/21 
f 18/21/22 17/20/22 10/12/22 
f 12/14/23 4/4/23 14/16/23 
f 14/16/24 18/21/24 12/14/24 
f 14/16/25 13/15/25 19/22/25 
f 19/22/26 20/23/26 14/16/26 
f 13/15/27 15/17/27 21/24/27 
f 21/24/28 19/22/28 13/15/28 
f 15/19/29 16/18/29 22/25/29 
f 22/25/30 21/26/30 15/19/30 
f 16/18/31 17/20/31 23/27/31 
f 23/27/32 22/25/32 16/18/32 
f 17/20/33 18/21/33 24/28/33 
f 24/28/34 23/27/34 17/20/34 
f 18/21/35 14/16/35 20/23/35 
f 20/23/36 24/28/36 18/21/36 
f 20/23/37 19/22/37 25/29/37 
f 25/29/38 26/30/38 20/23/38 
f 19/22/39 21/24/39 27/31/39 
f 27/31/40 25/29/40 19/22/40 
f 21/26/41 22/25/41 28/32/41 
f 28/32/42 27/33/42 21/26/42 
f 22/25/43 23/27/43 29/34/43 
f 29/34/44 28/32/44 22/25/44 
f 23/27/45 24/28/45 30/35/45 
f 30/35/46 29/34/46 23/27/46 
f 24/28/47 20/23/47 26/30/47 
f 26/30/48 30/35/48 24/28/48 
f 26/30/49 25/29/49 31/36/49 
f 31/36/50 32/37/50 26/30/50 
f 25/29/51 27/31/51 33/38/51 
f 33/38/52 31/36/52 25/29/52 
f 27/33/53 28/32/53 34/39/53 
f 34/39/54 33/40/54 27/33/54 
f 28/32/55 29/34/55 35/41/55 
f 35/41/56 34/39/56 28/32/56 
f 29/34/57 30/35/57 36/42/57 
f 36/42/58 35/41/58 29/34/58 
f 30/35/59 26/30/59 32/37/59 
f 32/37/60 36/42/60 30/35/60 
f 32/37/61 31/36/61 37/43/61 
f 37/43/62 38/44/62 32/37/62 
f 31/36/63 33/38/63 39/45/63 
f 39/45/64 37/43/64 31/36/64 
f 33/40/65 34/39/65 40/46/65 
f 40/46/66 39/47/66 33/40/66 
f 34/39/67 35/41/67 41/48/67 
f 41/48/68 40/46/68 34/39/68 
f 35/41/69 36/42/69 42/49/69 
f 42/49/70 41/48/70 35/41/70 
f 38/44/71 37/43/71 43/50/71 
f 43/50/72 44/51/72 38/44/72 
f 37/43/73 39/45/73 45/52/73 
f 45/52/74 43/50/74 37/43/74 
f 39/47/75 40/46/75 46/53/75 
f 46/53/76 45/54/76 39/47/76 
f 40/46/77 41/48/77 47/55/77 
f 47/55/78 46/53/78 40/46/78 
f 41/48/79 42/49/79 48/56/79 
f 48/56/80 47/55/80 41/48/80 
f 42/49/81 38/44/81 44/51/81 
f 44/51/82 48/56/82 42/49/82 
f 36/42/83 32/37/83 49/37/83 
f 49/37/84 50/42/84 36/42/84 
f 32/37/85 38/44/85 51/44/85 
f 51/44/86 49/37/86 32/37/86 
f 42/49/87 36/42/87 50/42/87 
f 50/42/88 52/49/88 42/49/88 
f 38/44/89 42/49/89 52/49/89 
f 52/49/90 51/44/90 38/44/90 
f 50/42/91 49/37/91 53/37/91 
f 53/37/92 54/42/92 50/42/92 
f 49/37/93 51/44/93 53/44/93 
f 53/44/94 53/37/94 49/37/94 
f 52/49/95 50/42/95 54/42/95 
f 54/42/96 54/49/96 52/49/96 
f 51/44/97 52/49/97 54/49/97 
f 54/49/98 53/44/98 51/44/98 
f 54/42/92 53/37/92 55/37/92 
f 55/37/99 56/42/99 54/42/99 
f 53/37/94 53/44/94 55/44/94 
f 55/44/100 55/37/100 53/37/100 
f 54/49/101 54/42/101 56/42/101 
f 56/42/102 57/49/102 54/49/102 
f 53/44/103 54/49/103 57/49/103 
f 57/49/104 55/44/104 53/44/104 
# 106 faces

#
# object InnerStick
#

v  -0.01 0.01 0.07
v  -0.01 -0.00 0.07
v  -0.01 -0.01 0.07
v  0.00 -0.01 0.07
v  0.00 0.00 0.07
v  0.00 0.01 0.07
v  -0.01 -0.01 -0.07
v  -0.02 -0.01 -0.07
v  -0.02 -0.00 -0.07
v  -0.02 0.00 -0.07
v  -0.01 0.00 -0.07
v  -0.01 -0.00 -0.07
v  0.02 -0.00 -0.07
v  0.01 0.00 -0.07
v  0.02 0.00 -0.06
v  0.02 -0.00 -0.06
# 16 vertices

vn 0.00 0.00 1.00
vn -0.00 0.00 1.00
vn -0.01 0.00 -1.00
vn -0.01 -0.00 -1.00
vn 0.09 0.03 -1.00
vn 0.04 0.03 -1.00
# 6 vertex normals

vt 0.93 0.25 -0.25
vt 0.50 0.00 -0.25
vt 0.07 0.25 -0.25
vt 0.07 0.75 -0.25
vt 0.50 1.00 -0.25
vt 0.93 0.75 -0.25
vt 0.07 0.75 0.25
vt 0.07 0.25 0.25
vt 0.50 0.00 0.25
vt 0.93 0.25 0.25
vt 0.93 0.75 0.25
vt 0.50 1.00 0.25
vt 0.75 0.86 1.00
vt 0.58 0.86 1.00
vt 0.58 0.71 1.00
vt 0.75 0.71 1.00
# 16 texture coords

g InnerStick
f 58/57/105 59/58/105 60/59/105 
f 60/59/105 61/60/105 62/61/105 
f 58/57/106 60/59/106 62/61/106 
f 63/62/106 58/57/106 62/61/106 
f 64/63/107 65/64/107 66/65/107 
f 66/65/108 67/66/108 68/67/108 
f 64/63/108 66/65/108 68/67/108 
f 69/68/108 64/63/108 68/67/108 
f 70/69/109 71/70/109 72/71/109 
f 72/71/110 73/72/110 70/69/110 
# 10 faces

