# 3ds Max Wavefront OBJ Exporter v0.97b - (c)2007 guruware
# File Created: 22.06.2016 14:54:19

#
# object Leaves03
#

v  -0.31 0.69 0.31
v  0.00 0.69 0.00
v  0.31 0.69 0.31
v  0.31 0.69 -0.31
v  -0.31 0.69 -0.31
v  0.16 0.99 0.16
v  -0.16 0.99 0.16
v  0.16 0.99 -0.16
v  -0.16 0.99 -0.16
# 9 vertices

vn 0.00 -1.00 -0.00
vn 0.00 0.45 0.89
vn 0.89 0.45 -0.00
vn 0.00 0.45 -0.89
vn -0.89 0.45 -0.00
vn 0.00 1.00 -0.00
# 6 vertex normals

vt 0.00 1.00 0.00
vt 0.50 0.50 0.00
vt 1.00 1.00 0.00
vt 1.00 0.00 0.00
vt 0.00 0.00 0.00
vt 0.75 0.50 0.00
vt 0.25 0.50 0.00
# 7 texture coords

g Leaves03
f 1/1/1 2/2/1 3/3/1 
f 3/3/1 2/2/1 4/4/1 
f 4/4/1 2/2/1 5/5/1 
f 5/5/1 2/2/1 1/1/1 
f 3/4/2 6/6/2 7/7/2 
f 7/7/2 1/5/2 3/4/2 
f 4/4/3 8/6/3 6/7/3 
f 6/7/3 3/5/3 4/4/3 
f 5/4/4 9/6/4 8/7/4 
f 8/7/4 4/5/4 5/4/4 
f 5/5/5 1/4/5 7/6/5 
f 7/6/5 9/7/5 5/5/5 
f 8/6/6 9/6/6 7/6/6 
f 7/6/6 6/6/6 8/6/6 
# 14 faces

#
# object Leaves01
#

v  0.00 1.41 0.00
v  -0.21 0.99 0.21
v  0.21 0.99 0.21
v  0.21 0.99 -0.21
v  -0.21 0.99 -0.21
v  0.00 0.99 0.00
# 6 vertices

vn 0.00 0.45 0.89
vn 0.89 0.45 -0.00
vn 0.00 0.45 -0.89
vn -0.89 0.45 -0.00
vn 0.00 -1.00 -0.00
# 5 vertex normals

vt 0.50 1.00 0.00
vt 0.00 0.00 0.00
vt 1.00 0.00 0.00
vt 0.00 1.00 0.00
vt 0.50 0.50 0.00
vt 1.00 1.00 0.00
# 6 texture coords

g Leaves01
f 10/8/7 11/9/7 12/10/7 
f 10/8/8 12/9/8 13/10/8 
f 10/8/9 13/9/9 14/10/9 
f 10/8/10 14/9/10 11/10/10 
f 11/11/11 15/12/11 12/13/11 
f 12/13/11 15/12/11 13/10/11 
f 13/10/11 15/12/11 14/9/11 
f 14/9/11 15/12/11 11/11/11 
# 8 faces

#
# object Wood
#

v  0.00 0.00 0.00
v  0.06 0.00 -0.06
v  0.09 0.00 0.00
v  0.00 0.00 -0.09
v  -0.06 0.00 -0.06
v  -0.09 0.00 0.00
v  -0.06 0.00 0.06
v  0.00 0.00 0.09
v  0.06 0.00 0.06
v  0.06 0.35 -0.06
v  0.09 0.35 0.00
v  0.00 0.35 -0.09
v  -0.06 0.35 -0.06
v  -0.09 0.35 0.00
v  -0.06 0.35 0.06
v  0.00 0.35 0.09
v  0.06 0.35 0.06
v  0.00 0.35 0.00
# 18 vertices

vn 0.00 -1.00 -0.00
vn 1.00 0.00 -0.00
vn 0.71 0.00 -0.71
vn 0.00 0.00 -1.00
vn -0.71 0.00 -0.71
vn -1.00 0.00 -0.00
vn -0.71 0.00 0.71
vn 0.00 0.00 1.00
vn 0.71 0.00 0.71
vn 0.00 1.00 -0.00
# 10 vertex normals

vt 0.50 0.00 0.00
vt 0.88 0.00 1.00
vt 0.75 0.00 1.00
vt 0.00 0.00 1.00
vt -0.13 0.00 1.00
vt 0.13 0.00 1.00
vt 0.25 0.00 1.00
vt 0.38 0.00 1.00
vt 0.50 0.00 1.00
vt 0.63 0.00 1.00
vt 0.88 1.00 1.00
vt 0.75 1.00 1.00
vt 0.00 1.00 1.00
vt -0.13 1.00 1.00
vt 0.13 1.00 1.00
vt 0.25 1.00 1.00
vt 0.38 1.00 1.00
vt 0.50 1.00 1.00
vt 0.63 1.00 1.00
vt 0.50 1.00 0.00
# 20 texture coords

g Wood
f 16/14/12 17/15/12 18/16/12 
f 16/14/12 19/17/12 17/18/12 
f 16/14/12 20/19/12 19/17/12 
f 16/14/12 21/20/12 20/19/12 
f 16/14/12 22/21/12 21/20/12 
f 16/14/12 23/22/12 22/21/12 
f 16/14/12 24/23/12 23/22/12 
f 16/14/12 18/16/12 24/23/12 
f 18/16/13 25/24/14 26/25/13 
f 18/16/13 17/15/14 25/24/14 
f 17/18/14 27/26/15 25/27/14 
f 17/18/14 19/17/15 27/26/15 
f 19/17/15 28/28/16 27/26/15 
f 19/17/15 20/19/16 28/28/16 
f 20/19/16 29/29/17 28/28/16 
f 20/19/16 21/20/17 29/29/17 
f 21/20/17 30/30/18 29/29/17 
f 21/20/17 22/21/18 30/30/18 
f 22/21/18 31/31/19 30/30/18 
f 22/21/18 23/22/19 31/31/19 
f 23/22/19 32/32/20 31/31/19 
f 23/22/19 24/23/20 32/32/20 
f 24/23/20 26/25/13 32/32/20 
f 24/23/20 18/16/13 26/25/13 
f 33/33/21 26/25/21 25/24/21 
f 33/33/21 25/27/21 27/26/21 
f 33/33/21 27/26/21 28/28/21 
f 33/33/21 28/28/21 29/29/21 
f 33/33/21 29/29/21 30/30/21 
f 33/33/21 30/30/21 31/31/21 
f 33/33/21 31/31/21 32/32/21 
f 33/33/21 32/32/21 26/25/21 
# 32 faces

#
# object Leaves02
#

v  -0.40 0.35 0.40
v  0.00 0.35 0.00
v  0.40 0.35 0.40
v  0.40 0.35 -0.40
v  -0.40 0.35 -0.40
v  0.23 0.69 0.23
v  -0.23 0.69 0.23
v  0.23 0.69 -0.23
v  -0.23 0.69 -0.23
# 9 vertices

vn 0.00 -1.00 -0.00
vn 0.00 0.45 0.89
vn 0.89 0.45 -0.00
vn 0.00 0.45 -0.89
vn -0.89 0.45 -0.00
vn 0.00 1.00 -0.00
# 6 vertex normals

vt 0.00 1.00 0.00
vt 0.50 0.50 0.00
vt 1.00 1.00 0.00
vt 1.00 0.00 0.00
vt 0.00 0.00 0.00
vt 0.75 0.50 0.00
vt 0.25 0.50 0.00
# 7 texture coords

g Leaves02
f 34/34/22 35/35/22 36/36/22 
f 36/36/22 35/35/22 37/37/22 
f 37/37/22 35/35/22 38/38/22 
f 38/38/22 35/35/22 34/34/22 
f 36/37/23 39/39/23 40/40/23 
f 40/40/23 34/38/23 36/37/23 
f 37/37/24 41/39/24 39/40/24 
f 39/40/24 36/38/24 37/37/24 
f 38/37/25 42/39/25 41/40/25 
f 41/40/25 37/38/25 38/37/25 
f 38/38/26 34/37/26 40/39/26 
f 40/39/26 42/40/26 38/38/26 
f 41/39/27 42/39/27 40/39/27 
f 40/39/27 39/39/27 41/39/27 
# 14 faces

