# 3ds Max Wavefront OBJ Exporter v0.97b - (c)2007 guruware
# File Created: 20.06.2016 17:37:45

#
# object Pyramid001
#

v  0.01 0.05 0.02
v  -0.01 0.05 0.03
v  0.03 0.04 0.01
v  0.01 0.05 -0.01
v  -0.00 0.04 0.01
v  -0.04 0.00 0.04
v  0.00 0.00 0.00
v  0.05 0.00 0.04
v  0.03 0.00 -0.03
v  -0.04 0.01 -0.00
v  -0.02 0.01 0.04
v  0.04 0.03 0.03
v  0.02 0.02 -0.02
v  -0.02 0.03 0.01
# 14 vertices

vn 0.51 -0.31 0.81
vn 0.51 0.86 -0.03
vn -0.15 0.99 -0.02
vn 0.06 0.98 -0.18
vn 0.00 -1.00 -0.00
vn -0.06 -1.00 -0.03
vn -0.26 0.92 0.30
vn 0.63 0.08 0.77
vn 0.98 0.07 -0.17
vn 0.76 0.61 -0.21
vn -0.59 0.62 -0.51
vn -0.41 0.90 -0.12
vn -0.94 0.27 0.23
vn -0.37 0.91 -0.20
vn -0.01 0.75 0.66
vn -0.29 0.94 -0.15
vn 0.93 0.36 -0.09
vn 0.72 0.68 -0.13
vn -0.66 0.14 -0.74
vn -0.61 0.60 -0.51
vn -0.14 0.99 0.03
vn -0.90 0.34 0.26
# 22 vertex normals

vt 0.50 1.00 0.00
vt 0.25 0.50 0.00
vt 0.75 0.50 0.00
vt 0.32 0.50 0.00
vt 0.82 0.50 0.00
vt 0.00 1.00 0.00
vt 0.50 0.50 0.00
vt 1.00 1.00 0.00
vt 1.00 0.00 0.00
vt 0.00 0.00 0.00
vt 0.13 0.25 0.00
vt 0.88 0.25 0.00
vt 0.24 0.25 0.00
vt 0.99 0.25 0.00
vt 0.15 0.00 0.00
vt 1.15 0.00 0.00
# 16 texture coords

g Pyramid001
f 1/1/1 2/2/1 3/3/1 
f 1/1/2 3/4/2 4/5/2 
f 1/1/3 4/2/3 5/3/3 
f 1/1/4 5/4/4 2/5/4 
f 6/6/5 7/7/5 8/8/5 
f 8/8/5 7/7/5 9/9/5 
f 9/9/6 7/7/6 10/10/6 
f 10/10/6 7/7/6 6/6/6 
f 11/11/7 12/12/7 3/3/7 
f 3/3/8 2/2/8 11/11/8 
f 3/4/9 12/13/9 13/14/9 
f 13/14/10 4/5/10 3/4/10 
f 4/2/11 13/11/11 14/12/11 
f 14/12/12 5/3/12 4/2/12 
f 14/13/13 11/14/13 2/5/13 
f 2/5/14 5/4/14 14/13/14 
f 6/10/15 8/9/15 12/12/15 
f 12/12/16 11/11/16 6/10/16 
f 12/13/17 8/15/17 9/16/17 
f 9/16/18 13/14/18 12/13/18 
f 13/11/19 9/10/19 10/9/19 
f 10/9/20 14/12/20 13/11/20 
f 10/15/21 6/16/21 11/14/21 
f 11/14/22 14/13/22 10/15/22 
# 24 faces

