# 3ds Max Wavefront OBJ Exporter v0.97b - (c)2007 guruware
# File Created: 20.06.2016 17:35:32

#
# object Pyramid001
#

v  0.00 0.06 0.02
v  -0.01 0.04 0.01
v  0.01 0.03 0.01
v  0.01 0.03 -0.00
v  -0.01 0.03 -0.00
v  -0.02 0.00 0.01
v  0.00 0.00 0.00
v  0.00 0.00 0.02
v  0.02 0.00 -0.01
v  -0.02 0.01 -0.02
v  -0.01 0.03 0.01
v  0.00 0.02 0.01
v  0.01 0.02 -0.01
v  -0.01 0.03 -0.01
# 14 vertices

vn -0.26 -0.56 0.79
vn 0.99 0.12 -0.00
vn -0.04 0.84 -0.54
vn -0.73 0.64 -0.21
vn 0.00 -1.00 -0.00
vn -0.03 -1.00 -0.04
vn -0.03 -1.00 -0.03
vn 0.56 -0.11 0.82
vn 0.36 0.51 0.78
vn 0.95 -0.17 0.28
vn 0.95 0.31 0.00
vn 0.19 0.16 -0.97
vn -0.05 0.66 -0.75
vn -0.97 0.22 -0.07
vn -0.45 0.72 0.53
vn 0.35 -0.48 0.80
vn 0.88 0.31 0.36
vn 0.81 0.55 0.22
vn 0.31 0.59 -0.75
vn 0.34 0.54 -0.77
vn -0.98 0.21 0.04
vn -0.88 0.47 -0.07
# 22 vertex normals

vt 0.50 1.00 0.00
vt 0.25 0.50 0.00
vt 0.75 0.50 0.00
vt 0.32 0.50 0.00
vt 0.82 0.50 0.00
vt 0.00 1.00 0.00
vt 0.50 0.50 0.00
vt 1.00 1.00 0.00
vt 1.00 0.00 0.00
vt 0.00 0.00 0.00
vt 0.13 0.25 0.00
vt 0.88 0.25 0.00
vt 0.24 0.25 0.00
vt 0.99 0.25 0.00
vt 0.15 0.00 0.00
vt 1.15 0.00 0.00
# 16 texture coords

g Pyramid001
f 1/1/1 2/2/1 3/3/1 
f 1/1/2 3/4/2 4/5/2 
f 1/1/3 4/2/3 5/3/3 
f 1/1/4 5/4/4 2/5/4 
f 6/6/5 7/7/5 8/8/5 
f 8/8/5 7/7/5 9/9/5 
f 9/9/6 7/7/6 10/10/6 
f 10/10/7 7/7/7 6/6/7 
f 11/11/8 12/12/8 3/3/8 
f 3/3/9 2/2/9 11/11/9 
f 3/4/10 12/13/10 13/14/10 
f 13/14/11 4/5/11 3/4/11 
f 4/2/12 13/11/12 14/12/12 
f 14/12/13 5/3/13 4/2/13 
f 14/13/14 11/14/14 2/5/14 
f 2/5/14 5/4/14 14/13/14 
f 6/10/15 8/9/15 12/12/15 
f 12/12/16 11/11/16 6/10/16 
f 12/13/17 8/15/17 9/16/17 
f 9/16/18 13/14/18 12/13/18 
f 13/11/19 9/10/19 10/9/19 
f 10/9/20 14/12/20 13/11/20 
f 10/15/21 6/16/21 11/14/21 
f 11/14/22 14/13/22 10/15/22 
# 24 faces

