# 3ds Max Wavefront OBJ Exporter v0.97b - (c)2007 guruware
# File Created: 20.06.2016 17:32:56

#
# object Pyramid001
#

v  0.00 0.12 0.00
v  -0.01 0.03 0.00
v  0.01 0.03 0.00
v  0.01 0.03 -0.01
v  -0.01 0.03 -0.01
v  -0.03 0.00 0.01
v  0.00 0.00 0.00
v  0.01 0.00 0.02
v  0.02 0.00 -0.02
v  -0.01 0.00 -0.03
# 10 vertices

vn 0.00 0.01 1.00
vn 0.99 0.15 -0.00
vn 0.00 0.38 -0.92
vn -0.99 0.15 -0.00
vn 0.00 -1.00 -0.00
vn 0.00 0.81 0.59
vn -0.54 0.50 0.68
vn 0.92 0.39 0.00
vn 0.97 0.18 0.16
vn 0.00 0.79 -0.61
vn 0.59 0.46 -0.66
vn -0.86 0.45 -0.25
vn -0.98 -0.19 -0.00
# 13 vertex normals

vt 0.50 1.00 0.00
vt 0.25 0.50 0.00
vt 0.75 0.50 0.00
vt 0.32 0.50 0.00
vt 0.82 0.50 0.00
vt 0.00 1.00 0.00
vt 0.50 0.50 0.00
vt 1.00 1.00 0.00
vt 1.00 0.00 0.00
vt 0.00 0.00 0.00
vt 1.15 0.00 0.00
vt 0.15 0.00 0.00
# 12 texture coords

g Pyramid001
f 1/1/1 2/2/1 3/3/1 
f 1/1/2 3/4/2 4/5/2 
f 1/1/3 4/2/3 5/3/3 
f 1/1/4 5/4/4 2/5/4 
f 6/6/5 7/7/5 8/8/5 
f 8/8/5 7/7/5 9/9/5 
f 9/9/5 7/7/5 10/10/5 
f 10/10/5 7/7/5 6/6/5 
f 8/9/6 3/3/6 2/2/6 
f 2/2/7 6/10/7 8/9/7 
f 9/11/8 4/5/8 3/4/8 
f 3/4/9 8/12/9 9/11/9 
f 10/9/10 5/3/10 4/2/10 
f 4/2/11 9/10/11 10/9/11 
f 10/12/12 6/11/12 2/5/12 
f 2/5/13 5/4/13 10/12/13 
# 16 faces

